<svg width="102" height="20" viewBox="0 0 102 20" xmlns="http://www.w3.org/2000/svg" xmlns:xlink="http://www.w3.org/1999/xlink">
    <g id="Join-Button">
        <linearGradient id="linearGradient1" x1="50.9952" y1="-5.423903" x2="50.9952" y2="29.290383" gradientUnits="userSpaceOnUse">
            <stop offset="0" stop-color="#9c08ec" stop-opacity="1"/>
            <stop offset="1" stop-color="#8c16cc" stop-opacity="1"/>
        </linearGradient>
        <path id="Base" fill="url(#linearGradient1)" fill-rule="evenodd" stroke="#000000" stroke-linecap="round" stroke-linejoin="round" d="M 1 19 L 101 19 L 101 1 L 1 1 Z"/>
        <path id="Highlight-1" fill="#ffffff" fill-opacity="0.320263" fill-rule="evenodd" stroke="none" d="M 2 3 L 100 3 L 100 2 L 2 2 Z"/>
        <path id="Highlight-2" fill="#ffffff" fill-opacity="0.320263" fill-rule="evenodd" stroke="none" d="M 2 18 L 3 18 L 3 2 L 2 2 Z"/>
        <path id="Shadow-1" fill="#000000" fill-opacity="0.320263" fill-rule="evenodd" stroke="none" d="M 2 18 L 100 18 L 100 17 L 2 17 Z"/>
        <path id="Shadow-2" fill="#000000" fill-opacity="0.320263" fill-rule="evenodd" stroke="none" d="M 99 18 L 100 18 L 100 2 L 99 2 Z"/>
        <path id="Join-Now--mcduskpro" fill="#ffffff" fill-rule="evenodd" stroke="none" d="M 90.75 13 L 90.75 12.25 L 93 12.25 L 93 13 Z M 90 12.25 L 90 10 L 90.75 10 L 90.75 12.25 Z M 93 12.25 L 93 10 L 93.75 10 L 93.75 12.25 Z M 90.75 10 L 90.75 9.25 L 93 9.25 L 93 10 Z M 88.5 10.75 L 88.5 10 L 89.25 10 L 89.25 10.75 Z M 85.5 13 L 85.5 9.25 L 86.25 9.25 L 86.25 10 L 87 10 L 87 10.75 L 86.25 10.75 L 86.25 13 Z M 87 10 L 87 9.25 L 88.5 9.25 L 88.5 10 Z M 84 11.5 L 84 10 L 84.75 10 L 84.75 11.5 Z M 81 13.75 L 81 9.25 L 81.75 9.25 L 81.75 10 L 82.5 10 L 82.5 10.75 L 81.75 10.75 L 81.75 11.5 L 84 11.5 L 84 12.25 L 81.75 12.25 L 81.75 13.75 Z M 82.5 10 L 82.5 9.25 L 84 9.25 L 84 10 Z M 79.5 13 L 79.5 11.5 L 80.25 11.5 L 80.25 13 Z M 78 13 L 78 12.25 L 78.75 12.25 L 78.75 13 Z M 77.25 12.25 L 77.25 11.5 L 78 11.5 L 78 12.25 Z M 77.25 10.75 L 77.25 10 L 78 10 L 78 10.75 Z M 78 10 L 78 9.25 L 78.75 9.25 L 78.75 10 Z M 75.75 13 L 75.75 7.75 L 76.5 7.75 L 76.5 10.75 L 77.25 10.75 L 77.25 11.5 L 76.5 11.5 L 76.5 13 Z M 71.25 13 L 71.25 12.25 L 74.25 12.25 L 74.25 13 Z M 74.25 12.25 L 74.25 11.5 L 75 11.5 L 75 12.25 Z M 72 11.5 L 72 10.75 L 74.25 10.75 L 74.25 11.5 Z M 71.25 10.75 L 71.25 10 L 72 10 L 72 10.75 Z M 72 10 L 72 9.25 L 75 9.25 L 75 10 Z M 66.75 12.25 L 66.75 9.25 L 67.5 9.25 L 67.5 12.25 Z M 67.5 13 L 67.5 12.25 L 69.75 12.25 L 69.75 9.25 L 70.5 9.25 L 70.5 13 Z M 62.25 12.25 L 62.25 10 L 63 10 L 63 12.25 Z M 63 10 L 63 9.25 L 64.5 9.25 L 64.5 10 Z M 63 13 L 63 12.25 L 65.25 12.25 L 65.25 10.75 L 64.5 10.75 L 64.5 10 L 65.25 10 L 65.25 7.75 L 66 7.75 L 66 13 Z M 60.75 13 L 60.75 11.5 L 61.5 11.5 L 61.5 13 Z M 57 13 L 57 12.25 L 59.25 12.25 L 59.25 13 Z M 59.25 12.25 L 59.25 11.5 L 60 11.5 L 60 12.25 Z M 56.25 12.25 L 56.25 10 L 57 10 L 57 12.25 Z M 59.25 10.75 L 59.25 10 L 60 10 L 60 10.75 Z M 57 10 L 57 9.25 L 59.25 9.25 L 59.25 10 Z M 53.25 11.5 L 53.25 10 L 54 10 L 54 11.5 Z M 54.75 13 L 54.75 10 L 55.5 10 L 55.5 13 Z M 51.75 13 L 51.75 9.25 L 53.25 9.25 L 53.25 10 L 52.5 10 L 52.5 13 Z M 54 10 L 54 9.25 L 54.75 9.25 L 54.75 10 Z M 46.5 13 L 46.5 12.25 L 47.25 12.25 L 47.25 13 Z M 47.25 12.25 L 47.25 11.5 L 48 11.5 L 48 12.25 Z M 48 11.5 L 48 10.75 L 48.75 10.75 L 48.75 11.5 Z M 48.75 10.75 L 48.75 10 L 49.5 10 L 49.5 10.75 Z M 48 10 L 48 9.25 L 48.75 9.25 L 48.75 10 Z M 47.25 9.25 L 47.25 8.5 L 48 8.5 L 48 9.25 Z M 46.5 8.5 L 46.5 7.75 L 47.25 7.75 L 47.25 8.5 Z M 42.75 13 L 42.75 12.25 L 43.5 12.25 L 43.5 13 Z M 43.5 12.25 L 43.5 11.5 L 44.25 11.5 L 44.25 12.25 Z M 44.25 11.5 L 44.25 10.75 L 45 10.75 L 45 11.5 Z M 45 10.75 L 45 10 L 45.75 10 L 45.75 10.75 Z M 44.25 10 L 44.25 9.25 L 45 9.25 L 45 10 Z M 43.5 9.25 L 43.5 8.5 L 44.25 8.5 L 44.25 9.25 Z M 42.75 8.5 L 42.75 7.75 L 43.5 7.75 L 43.5 8.5 Z M 39 13 L 39 12.25 L 39.75 12.25 L 39.75 13 Z M 39.75 12.25 L 39.75 11.5 L 40.5 11.5 L 40.5 12.25 Z M 40.5 11.5 L 40.5 10.75 L 41.25 10.75 L 41.25 11.5 Z M 41.25 10.75 L 41.25 10 L 42 10 L 42 10.75 Z M 40.5 10 L 40.5 9.25 L 41.25 9.25 L 41.25 10 Z M 39.75 9.25 L 39.75 8.5 L 40.5 8.5 L 40.5 9.25 Z M 39 8.5 L 39 7.75 L 39.75 7.75 L 39.75 8.5 Z M 33 12.25 L 33 9.25 L 33.75 9.25 L 33.75 12.25 Z M 33.75 13 L 33.75 12.25 L 34.5 12.25 L 34.5 10.75 L 35.25 10.75 L 35.25 12.25 L 36 12.25 L 36 9.25 L 36.75 9.25 L 36.75 13 Z M 29.25 13 L 29.25 12.25 L 31.5 12.25 L 31.5 13 Z M 28.5 12.25 L 28.5 10 L 29.25 10 L 29.25 12.25 Z M 31.5 12.25 L 31.5 10 L 32.25 10 L 32.25 12.25 Z M 29.25 10 L 29.25 9.25 L 31.5 9.25 L 31.5 10 Z M 25.5 10 L 25.5 9.25 L 26.25 9.25 L 26.25 10 Z M 24 13 L 24 7.75 L 24.75 7.75 L 24.75 8.5 L 25.5 8.5 L 25.5 9.25 L 24.75 9.25 L 24.75 13 Z M 27 13 L 27 10.75 L 26.25 10.75 L 26.25 10 L 27 10 L 27 7.75 L 27.75 7.75 L 27.75 13 Z M 21 13 L 21 10 L 21.75 10 L 21.75 13 Z M 18 13 L 18 9.25 L 21 9.25 L 21 10 L 18.75 10 L 18.75 13 Z M 16.5 13 L 16.5 9.25 L 17.25 9.25 L 17.25 13 Z M 16.5 8.5 L 16.5 7.75 L 17.25 7.75 L 17.25 8.5 Z M 12.75 13 L 12.75 12.25 L 15 12.25 L 15 13 Z M 12 12.25 L 12 10 L 12.75 10 L 12.75 12.25 Z M 15 12.25 L 15 10 L 15.75 10 L 15.75 12.25 Z M 12.75 10 L 12.75 9.25 L 15 9.25 L 15 10 Z M 8.25 13 L 8.25 12.25 L 10.5 12.25 L 10.5 13 Z M 7.5 12.25 L 7.5 11.5 L 8.25 11.5 L 8.25 12.25 Z M 10.5 12.25 L 10.5 7.75 L 11.25 7.75 L 11.25 12.25 Z"/>
    </g>
</svg>
