<svg width="148" height="34" viewBox="0 0 148 34" xmlns="http://www.w3.org/2000/svg" xmlns:xlink="http://www.w3.org/1999/xlink">
    <g id="Logo">
        <linearGradient id="linearGradient1" x1="65.67942" y1="-6.565835" x2="65.67942" y2="38.434165" gradientUnits="userSpaceOnUse">
            <stop offset="0" stop-color="#8321b8" stop-opacity="1"/>
            <stop offset="1" stop-color="#970ce3" stop-opacity="1"/>
        </linearGradient>
        <path id="DUSK" fill="url(#linearGradient1)" fill-rule="evenodd" stroke="none" d="M 88.608078 32.661766 C 88.608078 32.607082 88.614922 32.552399 88.628593 32.497715 C 88.642258 32.443031 88.649094 32.40202 88.649094 32.374676 C 88.649094 32.347336 88.676437 32.272144 88.731125 32.149109 C 88.785805 32.02607 88.840485 31.93721 88.895172 31.882526 C 88.922516 31.827841 89.004539 31.697971 89.141251 31.492905 C 89.277962 31.287842 89.37365 31.171638 89.428329 31.144299 C 89.455681 31.089615 89.503525 30.993921 89.571877 30.85721 C 89.640244 30.720501 89.674408 30.638477 89.674408 30.611135 L 89.674408 27.822273 C 89.619728 27.876957 89.565041 28.006828 89.510361 28.211893 C 89.455681 28.416956 89.428329 28.546829 89.428329 28.601511 C 89.400993 28.6562 89.366814 28.779234 89.325798 28.970629 C 89.284798 29.162018 89.23011 29.373917 89.161751 29.606327 C 89.093399 29.838732 89.038719 30.050629 88.997704 30.242022 C 88.956688 30.433413 88.922516 30.55645 88.895172 30.611135 C 88.895172 30.638477 88.854156 30.720501 88.772141 30.85721 C 88.690109 30.993921 88.594406 31.144299 88.485046 31.30835 C 88.375679 31.472401 88.266312 31.629616 88.156944 31.779995 C 88.047569 31.930376 87.965553 32.046574 87.910873 32.128601 C 87.856186 32.183285 87.767326 32.272144 87.644287 32.395184 C 87.521248 32.518223 87.432381 32.607082 87.377701 32.661766 C 87.323013 32.68911 87.282013 32.702782 87.254662 32.702782 C 87.227318 32.730122 87.199982 32.743793 87.172638 32.743793 L 87.13163 32.743793 L 87.13163 12.647591 C 87.13163 12.620251 87.227318 12.510885 87.418716 12.319489 C 87.610107 12.128099 87.774155 11.977718 87.910873 11.868353 C 87.938202 11.841013 88.013405 11.799997 88.136436 11.745314 C 88.259483 11.690632 88.348328 11.649616 88.403015 11.622274 C 88.51239 11.594934 88.710609 11.547085 88.997704 11.478727 C 89.284798 11.410378 89.592377 11.335188 89.920486 11.253164 C 90.248596 11.171133 90.556175 11.095949 90.843269 11.027594 C 91.130363 10.959236 91.328583 10.911386 91.437958 10.884047 L 91.684029 10.637974 C 91.574661 10.637974 91.376442 10.6243 91.089348 10.596958 C 90.802254 10.569618 90.494659 10.542276 90.166565 10.514935 C 89.838455 10.487593 89.530876 10.460253 89.243782 10.432911 C 88.956688 10.405569 88.758461 10.378222 88.649094 10.35088 C 88.512383 10.35088 88.286812 10.32354 87.972389 10.268856 C 87.657959 10.214174 87.459724 10.159491 87.377701 10.104809 C 87.323013 10.104809 87.268333 10.070633 87.213646 10.002275 C 87.158966 9.93392 87.13163 9.88607 87.13163 9.85873 L 87.13163 1 L 91.437958 1 C 91.465294 1 91.574661 1.095692 91.76606 1.287086 C 91.957451 1.478477 92.094154 1.642532 92.176186 1.77924 C 92.258217 1.861263 92.367577 1.997971 92.50428 2.189365 C 92.640991 2.38076 92.709343 2.490126 92.709343 2.517467 L 92.709343 9.85873 L 93.2015 9.120501 C 93.2015 8.983793 93.215164 8.758228 93.242516 8.443794 C 93.269852 8.12936 93.297195 7.79443 93.324532 7.438986 C 93.351883 7.083542 93.379211 6.75544 93.406563 6.454678 C 93.433914 6.153917 93.447578 5.935186 93.447578 5.798479 C 93.447578 5.743797 93.488594 5.620758 93.57061 5.429361 C 93.652641 5.237972 93.693657 5.114933 93.693657 5.060251 C 93.693657 5.032909 93.700493 4.855186 93.714157 4.527084 C 93.727829 4.198982 93.734657 3.952909 93.734657 3.788855 C 93.734657 3.624807 93.727829 3.378735 93.714157 3.050632 C 93.700493 2.72253 93.693657 2.544807 93.693657 2.517467 C 93.693657 2.462784 93.659477 2.291897 93.591125 2.004808 C 93.522758 1.717716 93.474915 1.546833 93.447578 1.492149 C 93.447578 1.464809 93.440742 1.389618 93.427063 1.266579 C 93.413399 1.143539 93.406563 1.054684 93.406563 1 L 97.384796 1 L 97.384796 9.366579 L 98.90226 9.366579 L 98.90226 4.937212 L 101.937187 4.937212 L 101.937187 1 L 112.190353 1 L 112.190353 12.278481 L 108.786308 12.278481 L 108.786308 15.313414 L 105.628326 15.313414 C 105.60099 15.368097 105.559982 15.436453 105.505295 15.518476 C 105.450615 15.600502 105.395927 15.655184 105.341248 15.682526 C 105.23188 15.764555 104.985802 15.92177 104.603012 16.154175 C 104.22023 16.38658 103.960487 16.530119 103.823776 16.584808 L 105.505295 16.584808 L 105.505295 18.840504 L 108.786308 18.840504 L 108.786308 21.875439 L 112.190353 21.875439 L 112.190353 33.153919 L 107.145805 33.153919 C 107.118454 33.044552 107.077454 32.825821 107.022766 32.497715 C 106.968086 32.169613 106.913391 31.96455 106.858711 31.882526 C 106.858711 31.855186 106.831375 31.814173 106.776688 31.759487 C 106.722008 31.704805 106.667328 31.663794 106.61264 31.636452 L 106.571625 31.636452 C 106.544281 31.636452 106.516945 31.622782 106.489594 31.595436 C 106.462265 31.595436 106.448586 31.602274 106.448586 31.615944 C 106.448586 31.629616 106.434914 31.636452 106.407578 31.636452 L 106.366562 31.636452 C 106.339218 31.691135 106.298203 31.821007 106.243515 32.02607 C 106.188835 32.231133 106.147835 32.347336 106.120483 32.374676 C 106.09314 32.429363 106.052132 32.525059 105.997452 32.661766 C 105.942772 32.798473 105.901756 32.880501 105.874405 32.907845 C 105.847069 32.935184 105.826561 32.962524 105.812889 32.989868 C 105.799225 33.017208 105.778709 33.044552 105.751373 33.071896 C 105.72403 33.099236 105.683014 33.126575 105.628326 33.153919 L 101.937187 33.153919 L 101.937187 29.216702 L 98.90226 29.216702 L 98.90226 24.787338 L 97.384796 24.787338 L 97.384796 33.153919 L 88.895172 33.153919 C 88.867821 33.153919 88.82682 33.126575 88.772141 33.071896 C 88.717453 33.017208 88.676437 32.962524 88.649094 32.907845 C 88.621758 32.880501 88.608078 32.853161 88.608078 32.825817 L 88.608078 32.661766 Z M 73.72049 24.664299 L 73.72049 21.383289 L 58.791885 21.383289 L 58.791885 11.130125 C 58.791885 11.102783 58.819225 11.054934 58.873909 10.986578 C 58.928593 10.918221 58.983273 10.884047 59.037956 10.884047 C 59.09264 10.856705 59.243019 10.815695 59.489098 10.761007 C 59.735176 10.706324 59.926567 10.665316 60.063274 10.637974 C 60.172646 10.583284 60.418716 10.528603 60.801502 10.473919 C 61.184288 10.419237 61.444035 10.378222 61.580742 10.35088 C 61.635429 10.35088 61.772137 10.344046 61.990868 10.330379 C 62.209602 10.316706 62.448841 10.296198 62.708588 10.268856 C 62.968342 10.241514 63.207581 10.214174 63.426311 10.186832 C 63.645046 10.159491 63.781754 10.132149 63.836437 10.104809 C 63.891125 10.104809 63.986816 10.070633 64.123528 10.002275 C 64.260239 9.93392 64.342262 9.88607 64.369606 9.85873 C 64.45163 9.831388 64.656693 9.790379 64.984795 9.735691 C 65.312897 9.681007 65.531624 9.639999 65.640999 9.612658 L 65.640999 9.366579 C 65.640999 9.366579 65.586311 9.352905 65.476944 9.325563 C 65.367577 9.298222 65.230873 9.270882 65.066818 9.24354 C 64.902771 9.216198 64.73188 9.188858 64.554161 9.161516 C 64.376434 9.134174 64.232895 9.120501 64.123528 9.120501 C 63.959476 9.120501 63.67239 9.113667 63.26226 9.099998 C 62.852135 9.086325 62.421509 9.079493 61.970367 9.079493 C 61.519222 9.079493 61.088596 9.086325 60.678463 9.099998 C 60.268337 9.113667 59.981251 9.120501 59.8172 9.120501 C 59.762512 9.093159 59.673653 9.052151 59.550617 8.997467 C 59.427578 8.94278 59.338718 8.888096 59.284035 8.833414 C 59.256695 8.833414 59.215679 8.799238 59.160995 8.730881 C 59.106312 8.662525 59.0653 8.614683 59.037956 8.587341 C 58.983273 8.532652 58.928593 8.443794 58.873909 8.320755 C 58.819225 8.197716 58.791885 8.122526 58.791885 8.095184 L 58.791885 1 L 84.096687 1 L 84.096687 9.489618 L 69.168083 9.489618 L 69.168083 12.77063 L 76.017197 12.77063 C 76.017197 12.825314 76.051376 12.934679 76.119728 13.098734 C 76.18808 13.262781 76.235931 13.372147 76.263275 13.426828 C 76.290611 13.426828 76.338463 13.46101 76.406822 13.529362 C 76.475174 13.597717 76.509354 13.645567 76.509354 13.672907 C 76.53669 13.754932 76.577698 13.891638 76.632393 14.083035 C 76.687073 14.274429 76.741753 14.472652 76.79644 14.677717 C 76.85112 14.88278 76.898972 15.081009 76.939987 15.272398 C 76.980995 15.463795 77.001503 15.600502 77.001503 15.682526 C 77.028839 15.600502 77.076691 15.463795 77.14505 15.272398 C 77.213402 15.081009 77.288589 14.875946 77.370613 14.657209 C 77.452644 14.438478 77.527824 14.233416 77.596184 14.042019 C 77.664543 13.85063 77.726059 13.727591 77.780739 13.672907 C 77.835419 13.536201 77.958466 13.372147 78.149849 13.180758 C 78.341248 12.989361 78.464294 12.893669 78.518974 12.893669 L 84.096687 12.893669 L 84.096687 33.153919 L 78.806053 33.153919 C 78.778717 33.153919 78.737701 33.126575 78.683022 33.071896 C 78.628342 33.017208 78.573654 32.962524 78.518974 32.907845 C 78.491623 32.853157 78.450615 32.764301 78.395927 32.641262 C 78.341248 32.518223 78.300232 32.429363 78.272896 32.374676 C 78.272896 32.347336 78.238716 32.142277 78.170364 31.759487 C 78.102005 31.376703 78.054169 31.075945 78.026817 30.85721 C 78.026817 30.802525 78.013153 30.693159 77.985802 30.529108 C 77.958466 30.365057 77.931122 30.187338 77.903786 29.995945 C 77.876434 29.80455 77.849098 29.626835 77.821754 29.46278 C 77.794403 29.298725 77.780739 29.175694 77.780739 29.093668 C 77.753403 29.12101 77.705551 29.162018 77.637199 29.216702 C 77.56884 29.271391 77.534668 29.312399 77.534668 29.339741 C 77.507324 29.394423 77.45948 29.558477 77.391121 29.83189 C 77.322762 30.105314 77.288589 30.283033 77.288589 30.365057 C 77.261246 30.474426 77.233902 30.658981 77.206566 30.91873 C 77.179222 31.178476 77.151878 31.458727 77.124542 31.759487 C 77.097198 32.060249 77.069855 32.3405 77.042519 32.60025 C 77.015175 32.859993 77.001503 33.044552 77.001503 33.153919 L 67.158463 33.153919 C 67.131126 33.153919 67.021759 33.085564 66.83036 32.948856 C 66.638969 32.812145 66.488594 32.71645 66.379227 32.661766 C 66.379227 32.634422 66.345047 32.59341 66.276695 32.538731 C 66.208336 32.484047 66.160492 32.429363 66.133148 32.374676 C 66.051125 32.265308 65.914413 32.087589 65.723022 31.841515 C 65.531624 31.595436 65.408592 31.445059 65.353912 31.390373 C 65.299217 31.30835 65.237701 31.185312 65.16935 31.021261 C 65.100998 30.85721 65.02581 30.693159 64.943787 30.529108 C 64.861755 30.365057 64.786568 30.221514 64.718216 30.098476 C 64.649857 29.975437 64.615677 29.900248 64.615677 29.872906 C 64.588341 29.736198 64.560997 29.496962 64.533653 29.155186 C 64.506317 28.813408 64.478966 28.457972 64.45163 28.088854 C 64.424286 27.719742 64.403786 27.364298 64.390106 27.022528 C 64.376434 26.680752 64.369606 26.441513 64.369606 26.304806 C 64.342262 26.414173 64.301254 26.612402 64.246567 26.899488 C 64.191879 27.186577 64.137199 27.494171 64.082512 27.822273 C 64.027832 28.150375 63.979984 28.457972 63.938969 28.745058 C 63.897961 29.032146 63.863777 29.230375 63.836437 29.339741 L 63.836437 32.374676 L 63.098213 33.153919 L 58.791885 33.153919 L 58.791885 24.664299 Z M 29.672901 29.216702 L 29.672901 18.471386 C 29.672901 18.444046 29.741251 18.396196 29.877964 18.327847 C 30.014669 18.259491 30.110369 18.225315 30.165051 18.225315 C 30.247074 18.197973 30.417957 18.204807 30.67771 18.245815 C 30.937454 18.286831 31.108343 18.307339 31.190367 18.307339 L 31.190367 17.692148 C 31.108343 17.692148 30.937454 17.664808 30.67771 17.610125 C 30.417957 17.555435 30.247074 17.500753 30.165051 17.446072 C 30.110369 17.41873 30.014669 17.37772 29.877964 17.323032 C 29.741251 17.268349 29.672901 17.227341 29.672901 17.199999 L 29.672901 1 L 39.803024 1 L 39.803024 11.991386 C 39.748341 11.991386 39.659477 11.977718 39.536438 11.950378 C 39.413406 11.923037 39.338215 11.895695 39.310875 11.868353 C 39.256184 11.868353 39.12632 11.793163 38.921249 11.642782 C 38.716187 11.492401 38.586311 11.403538 38.531631 11.376196 C 38.476948 11.348856 38.4291 11.321514 38.388088 11.294172 C 38.347073 11.26683 38.299225 11.239491 38.244541 11.212149 C 38.162518 11.184807 38.094162 11.157465 38.039478 11.130125 C 37.984798 11.130125 37.882263 11.143791 37.731884 11.171133 C 37.581505 11.198475 37.42429 11.225822 37.260242 11.253164 C 37.096188 11.280504 36.938972 11.307846 36.788593 11.335188 C 36.63821 11.36253 36.549355 11.376196 36.522011 11.376196 C 36.3853 11.403538 36.221252 11.430885 36.029861 11.458227 C 35.838467 11.485569 35.647076 11.512909 35.455681 11.540251 C 35.26429 11.567593 35.100239 11.5881 34.963531 11.601767 C 34.826824 11.61544 34.744793 11.622274 34.717453 11.622274 C 34.608086 11.622274 34.409863 11.629108 34.122768 11.642782 C 33.835682 11.65645 33.528088 11.66329 33.199986 11.66329 C 32.871883 11.66329 32.564293 11.65645 32.277199 11.642782 C 31.990112 11.629108 31.791883 11.622274 31.682518 11.622274 C 31.70986 11.676958 31.750874 11.73164 31.805557 11.786324 C 31.860239 11.841013 31.914923 11.868353 31.969604 11.868353 C 31.996946 11.923037 32.106312 11.970884 32.297707 12.011894 C 32.489105 12.05291 32.625809 12.100758 32.707832 12.155441 C 32.762516 12.182781 32.858215 12.210123 32.994923 12.237465 C 33.131634 12.264807 33.268341 12.292147 33.405048 12.319489 C 33.541759 12.34683 33.664795 12.367338 33.774166 12.381012 C 33.88353 12.39468 33.951889 12.401512 33.979229 12.401512 C 34.143276 12.401512 34.423531 12.415186 34.819984 12.442528 C 35.216442 12.46987 35.647072 12.497211 36.111885 12.524551 C 36.576694 12.551893 37.014164 12.579235 37.42429 12.606577 C 37.834415 12.633917 38.121502 12.647591 38.285557 12.647591 C 38.34024 12.702274 38.4291 12.784298 38.552139 12.893669 C 38.675179 13.003035 38.798218 13.126074 38.921249 13.262781 C 39.044289 13.399488 39.167328 13.529362 39.290367 13.652401 C 39.413406 13.77544 39.502262 13.864298 39.556946 13.918985 C 39.584286 13.973669 39.618469 14.021519 39.659477 14.062527 C 39.700493 14.103542 39.748341 14.15139 39.803024 14.206074 C 39.857708 14.288097 39.898724 14.356455 39.926064 14.411137 L 39.926064 24.54126 L 45.50378 24.54126 L 45.50378 23.269867 L 49.933147 23.269867 L 50.179226 23.023794 L 49.153912 23.023794 C 49.017197 23.023794 48.812134 23.01012 48.538723 22.98278 C 48.265301 22.955437 47.978214 22.928097 47.677452 22.900755 C 47.376694 22.873413 47.103279 22.846073 46.857201 22.818731 C 46.611122 22.791389 46.447075 22.777716 46.365051 22.777716 C 46.255676 22.750374 46.105305 22.709366 45.913906 22.654676 C 45.722519 22.599995 45.62682 22.558985 45.62682 22.531643 L 45.62682 1 L 55.756947 1 L 55.756947 29.216702 L 51.819733 29.216702 L 51.819733 33.399994 C 51.737705 33.399994 51.594162 33.393162 51.389099 33.37949 C 51.184036 33.365818 50.972137 33.34531 50.753403 33.31797 C 50.534664 33.29063 50.322769 33.263287 50.117706 33.235943 C 49.91264 33.208603 49.7691 33.181259 49.687069 33.153919 C 49.632389 33.126575 49.413658 33.017212 49.030872 32.825817 C 48.648087 32.634422 48.361 32.484047 48.169605 32.374676 C 48.114922 32.347336 47.985046 32.265312 47.779984 32.128601 C 47.574921 31.991892 47.445049 31.909868 47.390366 31.882526 C 47.363026 31.882526 47.308342 31.88936 47.226311 31.90303 C 47.144287 31.916702 47.089603 31.923538 47.062263 31.923538 C 47.062263 31.978222 47.082771 32.101261 47.123779 32.292652 C 47.164795 32.484047 47.171627 32.607082 47.144287 32.661766 C 47.116947 32.71645 47.075935 32.812145 47.021248 32.948856 C 46.966564 33.085564 46.925556 33.153919 46.898216 33.153919 L 33.610111 33.153919 L 33.610111 29.216702 Z M 23.438974 1 L 23.438974 3.911894 L 26.350872 3.911894 L 26.350872 17.692148 C 26.268848 17.71949 26.063786 17.7605 25.735683 17.815187 C 25.407581 17.869871 25.20252 17.924553 25.120493 17.979237 C 25.011124 18.006577 24.860746 18.047592 24.669355 18.102276 C 24.477962 18.15696 24.368593 18.197973 24.341251 18.225315 L 24.30024 18.307339 L 24.30024 18.430378 C 24.30024 18.45772 24.313911 18.471386 24.341251 18.471386 C 24.368593 18.52607 24.409605 18.580753 24.464291 18.635441 C 24.518974 18.690125 24.559986 18.717464 24.587328 18.717464 C 24.642014 18.744808 24.812899 18.744808 25.099985 18.717464 C 25.387079 18.690125 25.557961 18.690125 25.612644 18.717464 C 25.722015 18.772148 25.872389 18.902021 26.063786 19.107084 C 26.255175 19.312149 26.350872 19.44202 26.350872 19.496704 L 26.350872 30.242022 L 23.438974 30.242022 L 23.438974 33.153919 L 9.412645 33.153919 C 9.385303 33.017208 9.344292 32.764301 9.289609 32.395184 C 9.234923 32.026066 9.193912 31.773159 9.16657 31.636452 C 9.139229 31.581766 9.098217 31.424551 9.043534 31.164806 C 8.988848 30.905056 8.947836 30.720501 8.920495 30.611135 C 8.865812 30.501766 8.81113 30.351389 8.756443 30.159994 C 8.70176 29.968601 8.660748 29.872906 8.633408 29.872906 C 8.633408 29.872906 8.606066 29.859232 8.55138 29.83189 C 8.524038 29.83189 8.510368 29.838732 8.510368 29.852398 C 8.510368 29.866074 8.496697 29.872906 8.469356 29.872906 L 8.387329 29.872906 C 8.359987 29.872906 8.318975 29.907085 8.264293 29.975437 C 8.209607 30.043791 8.168595 30.09164 8.141253 30.118982 C 8.141253 30.201008 8.127583 30.337715 8.100242 30.529108 C 8.0729 30.720501 8.045559 30.918728 8.018217 31.123793 C 7.990873 31.328857 7.963531 31.527082 7.93619 31.718475 C 7.908849 31.909868 7.895178 32.046574 7.895178 32.128601 C 7.895178 32.183285 7.867837 32.272144 7.813154 32.395184 C 7.758468 32.518223 7.703786 32.607082 7.649103 32.661766 C 7.621762 32.68911 7.58075 32.730122 7.526064 32.784805 C 7.471381 32.839489 7.416698 32.880501 7.362012 32.907845 C 7.30733 32.962524 7.218469 33.017208 7.095433 33.071896 C 6.972394 33.126575 6.897203 33.153919 6.869862 33.153919 L 0.799988 33.153919 L 0.799988 1 Z M 11.422266 24.54126 L 15.851634 24.54126 L 15.851634 14.657209 C 15.878975 14.602526 15.919988 14.534176 15.97467 14.452147 C 16.029356 14.397463 16.077202 14.349613 16.118217 14.308605 C 16.159229 14.26759 16.207075 14.219742 16.261761 14.165058 C 16.316442 14.083035 16.43948 13.946327 16.630875 13.754932 C 16.822268 13.563541 16.945303 13.45417 16.999987 13.426828 C 17.054672 13.372147 17.14353 13.317465 17.266569 13.262781 C 17.389608 13.208099 17.464798 13.167084 17.49214 13.139742 C 17.656191 13.139742 17.915934 13.126074 18.271381 13.098734 C 18.626825 13.071392 19.009607 13.044044 19.419733 13.016703 C 19.829863 12.989361 20.212643 12.962021 20.568089 12.934679 C 20.923532 12.907337 21.169609 12.893669 21.306314 12.893669 C 21.415684 12.893669 21.661758 12.859488 22.044544 12.791138 C 22.42733 12.722782 22.687075 12.674932 22.823786 12.647591 C 22.878468 12.620251 23.008341 12.579235 23.213404 12.524551 C 23.41847 12.46987 23.54834 12.428854 23.603025 12.401512 L 23.849102 12.155441 C 23.849102 12.100758 23.855936 12.066576 23.869606 12.05291 C 23.883276 12.039236 23.890114 12.018728 23.890114 11.991386 C 23.726063 11.991386 23.438974 11.984552 23.028849 11.970884 C 22.618719 11.957211 22.181253 11.943544 21.716442 11.929871 C 21.251629 11.916197 20.814167 11.902529 20.404037 11.888855 C 19.993908 11.875187 19.706823 11.868353 19.542772 11.868353 C 19.488087 11.868353 19.385559 11.854679 19.235178 11.827339 C 19.084797 11.799997 18.927584 11.772655 18.763533 11.745314 C 18.59948 11.717974 18.442266 11.690632 18.291885 11.66329 C 18.141504 11.635948 18.052647 11.622274 18.025303 11.622274 L 17.574163 11.622274 L 17.246065 11.622274 C 17.218719 11.649616 17.157204 11.7043 17.061506 11.786324 C 16.965811 11.868353 16.863279 11.950378 16.75391 12.032402 C 16.644543 12.114426 16.542013 12.196449 16.446316 12.278481 C 16.350622 12.360504 16.289103 12.401512 16.261761 12.401512 C 16.207075 12.401512 16.138721 12.381012 16.056698 12.339996 C 15.97467 12.298981 15.906317 12.278481 15.851634 12.278481 L 15.851634 9.612658 L 11.422266 9.612658 Z"/>
        <linearGradient id="linearGradient2" x1="133.112203" y1="13.290181" x2="133.112203" y2="38.290181" gradientUnits="userSpaceOnUse">
            <stop offset="0" stop-color="#9212d9" stop-opacity="1"/>
            <stop offset="1" stop-color="#980be4" stop-opacity="1"/>
        </linearGradient>
        <path id="MC" fill="url(#linearGradient2)" fill-rule="evenodd" stroke="none" d="M 132.901749 31.390373 L 132.901749 19.250631 L 134.870361 19.250631 L 134.870361 17.282022 L 145.943771 17.282022 L 145.943771 21.526829 L 138.089859 21.526829 L 138.089859 29.11417 L 145.943771 29.11417 L 145.943771 33.358982 L 134.870361 33.358982 L 134.870361 31.390373 Z M 121.438713 17.282022 L 121.438713 19.250631 L 123.468834 19.250631 L 123.468834 21.075693 L 124.22757 21.075693 L 124.22757 19.250631 L 126.257698 19.250631 L 126.257698 17.282022 L 131.240738 17.282022 L 131.240738 33.358982 L 126.257698 33.358982 L 126.257698 26.530376 L 125.355415 26.530376 L 125.355415 28.293917 L 122.197449 28.293917 L 122.197449 26.530376 L 121.438713 26.530376 L 121.438713 33.358982 L 116.312134 33.358982 L 116.312134 17.282022 Z"/>
    </g>
</svg>
