<?xml version="1.0" encoding="utf-8"?>
<svg viewBox="0 0 176 221" width="176px" height="221px" id="tab-1" xmlns="http://www.w3.org/2000/svg" xmlns:xlink="http://www.w3.org/1999/xlink" xmlns:bx="https://boxy-svg.com">
  <defs>
    <linearGradient id="bg-light" bx:pinned="true">
      <stop style="stop-color: rgb(198, 198, 198);"/>
    </linearGradient>
    <linearGradient id="bg-dark" bx:pinned="true">
      <stop style="stop-color: rgb(139, 139, 139);"/>
    </linearGradient>
    <linearGradient id="bg-shadow" bx:pinned="true">
      <stop style="stop-color: rgb(85, 85, 85);"/>
    </linearGradient>
    <linearGradient id="ui-mix" bx:pinned="true">
      <stop style="stop-color: rgb(139, 139, 139);"/>
    </linearGradient>
    <symbol id="ui-cut" viewBox="0 0 176 193" bx:pinned="true">
      <g transform="matrix(1, 0, 0, 1, 0, -28)">
        <rect x="3" y="31" width="170" height="187" style="fill: url(#bg-light);"/>
        <g>
          <rect x="1" y="30" width="2" height="188" style="fill: White;"/>
          <rect x="1" y="29" width="173" height="2" style="fill: White;"/>
        </g>
        <g>
          <rect x="2" y="218" width="173" height="2" style="fill: url(#bg-shadow);"/>
          <rect x="173" y="31" width="2" height="187" style="fill: url(#bg-shadow);"/>
          <rect x="172" y="217" width="1" height="1" style="fill: url(#bg-shadow);"/>
        </g>
        <g>
          <rect x="2" y="28" width="171" height="1"/>
          <rect x="173" y="29" width="1" height="1"/>
          <rect x="174" y="30" width="1" height="1"/>
          <rect x="175" y="29" width="1" height="190"/>
          <rect x="174" y="219" width="1" height="1"/>
          <rect x="3" y="220" width="171" height="1"/>
          <rect x="1" y="218" width="1" height="1"/>
          <rect x="2" y="219" width="1" height="1"/>
          <rect y="29" width="1" height="189"/>
          <rect x="1" y="29" width="1" height="1"/>
          <rect x="173" y="30" width="1" height="1" style="fill: url(#ui-mix);"/>
        </g>
      </g>
    </symbol>
    <symbol id="ui-tab-back" viewBox="0 0 28 31" bx:pinned="true">
      <g transform="matrix(1, 0, 0, 1, -42, 0)">
        <rect x="45" y="3" width="22" height="28" style="fill: url(#bg-dark);" id="b-background"/>
        <g>
          <rect x="43" y="1" width="24" height="2" style="fill:White;"/>
          <rect x="43" y="3" width="2" height="28" style="fill:White;"/>
          <rect x="45" y="3" width="1" height="1" style="fill:White;"/>
          <rect x="67" y="2" width="1" height="1" style="fill: url(#ui-mix);"/>
        </g>
        <g>
          <rect x="67" y="3" width="2" height="27" style="fill: url(#bg-shadow);"/>
          <rect x="67" y="30" width="1" height="1" style="fill: url(#bg-shadow);"/>
        </g>
        <g>
          <rect x="42" y="2" width="1" height="29"/>
          <rect x="43" y="1" width="1" height="1"/>
          <rect x="44" width="23" height="1"/>
          <rect x="67" y="1" width="1" height="1"/>
          <rect x="68" y="2" width="1" height="1"/>
          <rect x="69" y="3" width="1" height="26"/>
        </g>
      </g>
    </symbol>
    <symbol id="ui-tab-front" viewBox="0 0 28 31" bx:pinned="true">
      <g transform="matrix(1, 0, 0, 1, 0, 0)">
        <rect x="3" y="3" width="22" height="28" style="fill: url(#bg-light);" id="t-bg"/>
        <g>
          <rect x="2" y="1" width="23" height="2" style="fill:White;"/>
          <rect x="1" y="2" width="2" height="29" style="fill:White;"/>
          <rect x="3" y="3" width="1" height="1" style="fill:White;"/>
          <rect x="25" y="2" width="1" height="1" style="fill: url(#ui-mix);"/>
        </g>
        <g>
          <rect x="25" y="3" width="2" height="27" style="fill: url(#bg-shadow);"/>
          <rect x="25" y="30" width="1" height="1" style="fill: url(#bg-shadow);"/>
        </g>
        <g>
          <rect x="27" y="3" width="1" height="26" style=""/>
          <rect y="2" width="1" height="27" style=""/>
          <rect x="1" y="1" width="1" height="1" style=""/>
          <rect x="2" width="23" height="1" style=""/>
          <rect x="25" y="1" width="1" height="1" style=""/>
          <rect x="26" y="2" width="1" height="1" style=""/>
        </g>
      </g>
    </symbol>
    <view id="tab-2" viewBox="186 0 176 221"/>
    <view id="tab-3" viewBox="372 0 176 221"/>
    <view id="tab-4" viewBox="558 0 176 221"/>
    <symbol id="ui-main" viewBox="0 0 176 221" bx:pinned="true">
      <g id="ui-1" transform="matrix(1, 0, 0, 1, 0, 0)">
        <use width="28" height="31" transform="matrix(1, 0, 0, 1, 0, 0)" xlink:href="#ui-tab-back"/>
        <use width="28" height="31" transform="matrix(1, 0, 0, 1, 28, 0)" xlink:href="#ui-tab-back"/>
        <use width="28" height="31" transform="matrix(1, 0, 0, 1, 56, 0)" xlink:href="#ui-tab-back"/>
        <use width="28" height="31" transform="matrix(1, 0, 0, 1, 84, 0)" xlink:href="#ui-tab-back"/>
        <use width="28" height="31" transform="matrix(1, 0, 0, 1, 148, 0)" xlink:href="#ui-tab-back"/>
        <use width="176" height="193" transform="matrix(1, 0, 0, 1, 0, 28)" xlink:href="#ui-cut"/>
      </g>
    </symbol>
    <bx:grid x="0" y="0" width="1" height="1"/>
  </defs>
  <use width="176" height="221" xlink:href="#ui-main"/>
  <use width="176" height="221" transform="matrix(1, 0, 0, 1, 186, 0)" xlink:href="#ui-main"/>
  <use width="176" height="221" transform="matrix(1, 0, 0, 1, 372, 0)" xlink:href="#ui-main"/>
  <use width="176" height="221" transform="matrix(1, 0, 0, 1, 558, 0)" xlink:href="#ui-main"/>
  <use width="28" height="31" xlink:href="#ui-tab-front"/>
  <use width="28" height="31" transform="matrix(1, 0, 0, 1, 214, 0)" xlink:href="#ui-tab-front"/>
  <use width="28" height="31" transform="matrix(1, 0, 0, 1, 428, 0)" xlink:href="#ui-tab-front"/>
  <use width="28" height="31" transform="matrix(1, 0, 0, 1, 642, 0)" xlink:href="#ui-tab-front"/>
</svg>