<?xml version="1.0" encoding="utf-8"?>
<svg viewBox="0 0 528 663" width="0px" height="0px" xmlns="http://www.w3.org/2000/svg" xmlns:xlink="http://www.w3.org/1999/xlink" xmlns:bx="https://boxy-svg.com">
  <defs>
    <bx:grid x="0" y="0" width="3" height="3"/>
    <symbol id="back-tab" viewBox="0 0 28 31">
      <title>Back Tab</title>
      <g id="Back-Tab-1" transform="matrix(1, 0, 0, 1, 0, 0)">
        <title>Back-Tab</title>
        <g id="Background">
          <path id="Rectangle" fill="#8b8b8b" fill-rule="evenodd" stroke="none" d="M 1 31 L 26 31 L 26 1 L 1 1 Z"/>
          <path id="path1" fill="#8b8b8b" fill-rule="evenodd" stroke="none" d="M 26 30 L 27 30 L 27 3 L 26 3 Z"/>
        </g>
        <g id="Border">
          <path id="path2" fill="#000000" fill-rule="evenodd" stroke="none" d="M 0 31 L 1 31 L 1 2 L 0 2 Z"/>
          <path id="path3" fill="#000000" fill-rule="evenodd" stroke="none" d="M 27 29 L 28 29 L 28 3 L 27 3 Z"/>
          <path id="path4" fill="#000000" fill-rule="evenodd" stroke="none" d="M 1 2 L 2 2 L 2 1 L 1 1 Z"/>
          <path id="path5" fill="#000000" fill-rule="evenodd" stroke="none" d="M 2 1 L 25 1 L 25 0 L 2 0 Z"/>
          <path id="path6" fill="#000000" fill-rule="evenodd" stroke="none" d="M 25 2 L 26 2 L 26 1 L 25 1 Z"/>
          <path id="path7" fill="#000000" fill-rule="evenodd" stroke="none" d="M 26 3 L 27 3 L 27 2 L 26 2 Z"/>
        </g>
        <g id="Highlight">
          <path id="path8" fill="#ffffff" fill-rule="evenodd" stroke="none" d="M 1 31 L 3 31 L 3 3 L 1 3 Z"/>
          <path id="path9" fill="#ffffff" fill-rule="evenodd" stroke="none" d="M 2 3 L 25 3 L 25 1 L 2 1 Z"/>
          <path id="path10" fill="#ffffff" fill-rule="evenodd" stroke="none" d="M 3 4 L 4 4 L 4 3 L 3 3 Z"/>
          <path id="path11" fill="#ffffff" fill-rule="evenodd" stroke="none" d="M 1 3 L 2 3 L 2 2 L 1 2 Z"/>
        </g>
        <g id="Shadow">
          <path id="path12" fill="#555555" fill-rule="evenodd" stroke="none" d="M 25 30 L 27 30 L 27 3 L 25 3 Z"/>
          <path id="path13" fill="#555555" fill-rule="evenodd" stroke="none" d="M 25 31 L 26 31 L 26 30 L 25 30 Z"/>
        </g>
      </g>
    </symbol>
    <symbol id="back-grey" viewBox="0 0 528 579" bx:pinned="true">
      <title>Back-Grey</title>
      <g id="Element-Cut" transform="matrix(3.0000000000000004, 0, 0, 3.0000000000000004, 0, -84)">
        <title>Back-Container</title>
        <g id="g17">
          <path id="path70" fill="#c6c6c6" fill-rule="evenodd" stroke="none" d="M 2 220 L 174 220 L 174 30 L 2 30 Z"/>
          <path id="path71" fill="#c6c6c6" fill-rule="evenodd" stroke="none" d="M 175 217 L 173 217 L 173 31 L 175 31 Z"/>
        </g>
        <g id="g18">
          <path id="path72" fill="#000000" fill-rule="evenodd" stroke="none" d="M 2 29 L 173 29 L 173 28 L 2 28 Z"/>
          <path id="Path" fill="#000000" fill-rule="evenodd" stroke="none" d="M 0 218 L 1 218 L 1 29 L 0 29 L 0 218 Z" style=""/>
          <path id="path73" fill="#000000" fill-rule="evenodd" stroke="none" d="M 3 221 L 174 221 L 174 220 L 3 220 L 3 221 Z"/>
          <path id="path74" fill="#000000" fill-rule="evenodd" stroke="none" d="M 175 219 L 176 219 L 176 29 L 175 29 L 175 219 Z" style=""/>
          <path id="path75" fill="#000000" fill-rule="evenodd" stroke="none" d="M 174 220 L 175 220 L 175 219 L 174 219 L 174 220 Z"/>
          <path id="path76" fill="#000000" fill-rule="evenodd" stroke="none" d="M 173 30 L 174 30 L 174 29 L 173 29 Z"/>
          <path id="path77" fill="#000000" fill-rule="evenodd" stroke="none" d="M 174 31 L 175 31 L 175 30 L 174 30 Z"/>
          <path id="path78" fill="#000000" fill-rule="evenodd" stroke="none" d="M 1 30 L 2 30 L 2 29 L 1 29 Z"/>
          <path id="path79" fill="#000000" fill-rule="evenodd" stroke="none" d="M 1 219 L 2 219 L 2 218 L 1 218 L 1 219 Z"/>
          <path id="path80" fill="#000000" fill-rule="evenodd" stroke="none" d="M 2 220 L 3 220 L 3 219 L 2 219 L 2 220 Z"/>
        </g>
        <g id="g19">
          <path id="path81" fill="#ffffff" fill-rule="evenodd" stroke="none" d="M 1 218 L 3 218 L 3 30 L 1 30 L 1 218 Z" style=""/>
          <path id="path82" fill="#ffffff" fill-rule="evenodd" stroke="none" d="M 2 31 L 173 31 L 173 29 L 2 29 Z"/>
          <path id="path83" fill="#ffffff" fill-rule="evenodd" stroke="none" d="M 2 33 L 3 33 L 3 32 L 2 32 Z"/>
        </g>
        <g id="g20">
          <path id="path84" fill="#555555" fill-rule="evenodd" stroke="none" d="M 173 219 L 175 219 L 175 31 L 173 31 L 173 219 Z" style=""/>
          <path id="path85" fill="#555555" fill-rule="evenodd" stroke="none" d="M 3 220 L 174 220 L 174 218 L 3 218 L 3 220 Z"/>
          <path id="path86" fill="#555555" fill-rule="evenodd" stroke="none" d="M 172 218 L 173 218 L 173 217 L 172 217 L 172 218 Z"/>
          <path id="path87" fill="#555555" fill-rule="evenodd" stroke="none" d="M 2 219 L 3 219 L 3 218 L 2 218 L 2 219 Z"/>
        </g>
      </g>
    </symbol>
    <symbol id="back-ui" viewBox="0 0 528 662" bx:pinned="true">
      <title>Back-UI</title>
      <g id="UIMain" style="" transform="matrix(3, 0, 0, 3, 0, 0)">
        <title>Main</title>
        <use width="28" height="31" style="fill: rgb(186, 218, 85);" transform="matrix(1, 0, 0, 1, 0, 0)" xlink:href="#back-tab"/>
        <use width="28" height="31" transform="matrix(1, 0, 0, 1, 28, 0)" xlink:href="#back-tab"/>
        <use width="28" height="31" transform="matrix(1, 0, 0, 1, 56, 0)" xlink:href="#back-tab"/>
        <use width="28" height="31" transform="matrix(1, 0, 0, 1, 84, 0)" xlink:href="#back-tab"/>
        <use width="28" height="31" transform="matrix(1, 0, 0, 1, 148, 0)" xlink:href="#back-tab"/>
        <use width="528" height="579" transform="matrix(0.33333301544189453, 0, 0, 0.33333301544189453, 0, 28)" xlink:href="#back-grey"/>
      </g>
    </symbol>
    <symbol id="front-tab" viewBox="0 0 84 93" bx:pinned="true">
      <title>Front-Tab</title>
      <g id="FrontTab" style="" transform="matrix(3, 0, 0, 3, 0, 0)">
        <title>Front-Tab</title>
        <g id="g21">
          <path id="path88" fill="#c6c6c6" fill-rule="evenodd" stroke="none" d="M 1 31 L 26 31 L 26 1 L 1 1 Z"/>
          <path id="path89" fill="#c6c6c6" fill-rule="evenodd" stroke="none" d="M 26 30 L 27 30 L 27 3 L 26 3 Z"/>
        </g>
        <g id="g22">
          <path id="path90" fill="#000000" fill-rule="evenodd" stroke="none" d="M 0 29 L 1 29 L 1 2 L 0 2 Z"/>
          <path id="path91" fill="#000000" fill-rule="evenodd" stroke="none" d="M 27 29 L 28 29 L 28 3 L 27 3 Z"/>
          <path id="path92" fill="#000000" fill-rule="evenodd" stroke="none" d="M 1 2 L 2 2 L 2 1 L 1 1 Z"/>
          <path id="path93" fill="#000000" fill-rule="evenodd" stroke="none" d="M 2 1 L 25 1 L 25 0 L 2 0 Z"/>
          <path id="path94" fill="#000000" fill-rule="evenodd" stroke="none" d="M 25 2 L 26 2 L 26 1 L 25 1 Z"/>
          <path id="path95" fill="#000000" fill-rule="evenodd" stroke="none" d="M 26 3 L 27 3 L 27 2 L 26 2 Z"/>
        </g>
        <g id="g23">
          <path id="path96" fill="#ffffff" fill-rule="evenodd" stroke="none" d="M 1 31 L 3 31 L 3 3 L 1 3 Z"/>
          <path id="path97" fill="#ffffff" fill-rule="evenodd" stroke="none" d="M 2 3 L 25 3 L 25 1 L 2 1 Z"/>
          <path id="path98" fill="#ffffff" fill-rule="evenodd" stroke="none" d="M 3 4 L 4 4 L 4 3 L 3 3 Z"/>
          <path id="path99" fill="#ffffff" fill-rule="evenodd" stroke="none" d="M 1 3 L 2 3 L 2 2 L 1 2 Z"/>
        </g>
        <g id="g24">
          <path id="path100" fill="#555555" fill-rule="evenodd" stroke="none" d="M 25 30 L 27 30 L 27 3 L 25 3 Z"/>
          <path id="path101" fill="#555555" fill-rule="evenodd" stroke="none" d="M 25 31 L 26 31 L 26 30 L 25 30 Z"/>
        </g>
      </g>
    </symbol>
    <view id="tab-2" viewBox="600 0 528 662">
      <title>View 1</title>
    </view>
    <view id="tab-3" viewBox="1200 0 528 662">
      <title>View 2</title>
    </view>
    <view id="tab-4" viewBox="1800 0 528 662">
      <title>View 3</title>
    </view>
    <linearGradient id="logo-color" bx:pinned="true">
      <stop style="stop-color: rgb(146, 45, 200);"/>
    </linearGradient>
  </defs>
  <use width="528" height="662" transform="matrix(1, 0, 0, 1, 0, 0)" xlink:href="#back-ui"/>
  <use width="84" height="93" transform="matrix(1, 0, 0, 1, 0, 0)" xlink:href="#front-tab"/>
  <use width="528" height="662" transform="matrix(1, 0, 0, 1, 600, 0)" xlink:href="#back-ui"/>
  <use width="84" height="93" transform="matrix(1, 0, 0, 1, 684, 0)" xlink:href="#front-tab"/>
  <use width="528" height="662" transform="matrix(1, 0, 0, 1, 1200, 0)" xlink:href="#back-ui"/>
  <use width="84" height="93" transform="matrix(1, 0, 0, 1, 1368, 0)" xlink:href="#front-tab"/>
  <use width="528" height="662" transform="matrix(1, 0, 0, 1, 1800, 0)" xlink:href="#back-ui"/>
  <use width="84" height="93" transform="matrix(1, 0, 0, 1, 2052, 0)" xlink:href="#front-tab"/>
</svg>