<?xml version="1.0" encoding="utf-8"?>
<svg id="tab-1" width="176px" height="221px" xmlns="http://www.w3.org/2000/svg" xmlns:xlink="http://www.w3.org/1999/xlink" xmlns:bx="https://boxy-svg.com">
  <defs>
    <linearGradient id="bg-light" bx:pinned="true">
      <stop stop-color="#c6c6c6"/>
    </linearGradient>
    <linearGradient id="bg-dark" bx:pinned="true">
      <stop stop-color="#8b8b8b"/>
    </linearGradient>
    <linearGradient id="bg-shadow" bx:pinned="true">
      <stop stop-color="#555"/>
    </linearGradient>
    <linearGradient id="ui-mix" bx:pinned="true">
      <stop stop-color="#8b8b8b"/>
    </linearGradient>
    <symbol id="ui-cut" viewBox="0 0 176 193" bx:pinned="true">
      <path fill="url(#bg-light)" d="M3 3h170v187H3z"/>
      <path fill="#fff" d="M1 2h2v188H1z"/>
      <path fill="#fff" d="M1 1h173v2H1z"/>
      <path fill="url(#bg-shadow)" d="M2 190h173v2H2zM173 3h2v187h-2zM172 189h1v1h-1z"/>
      <path d="M2 0h171v1H2zM173 1h1v1h-1zM174 2h1v1h-1zM175 1h1v190h-1zM174 191h1v1h-1zM3 192h171v1H3zM1 190h1v1H1zM2 191h1v1H2zM0 1h1v189H0zM1 1h1v1H1z"/>
      <path fill="url(#ui-mix)" d="M173 2h1v1h-1z"/>
    </symbol>
    <symbol id="ui-tab-back" viewBox="0 0 28 31" bx:pinned="true">
      <path id="b-background" fill="url(#bg-dark)" d="M3 3h22v28H3z"/>
      <path fill="#fff" d="M1 1h24v2H1zM1 3h2v28H1zM3 3h1v1H3z"/>
      <path fill="url(#ui-mix)" d="M25 2h1v1h-1z"/>
      <path fill="url(#bg-shadow)" d="M25 3h2v27h-2zM25 30h1v1h-1z"/>
      <path d="M0 2h1v29H0zM1 1h1v1H1zM2 0h23v1H2zM25 1h1v1h-1zM26 2h1v1h-1zM27 3h1v26h-1z"/>
    </symbol>
    <symbol id="ui-tab-front" viewBox="0 0 28 31" bx:pinned="true">
      <path id="t-bg" fill="url(#bg-light)" d="M3 3h22v28H3z"/>
      <path fill="#fff" d="M2 1h23v2H2z"/>
      <path fill="#fff" d="M1 2h2v29H1zM3 3h1v1H3z"/>
      <path fill="url(#ui-mix)" d="M25 2h1v1h-1z"/>
      <path fill="url(#bg-shadow)" d="M25 3h2v27h-2zM25 30h1v1h-1z"/>
      <path d="M27 3h1v26h-1zM0 2h1v27H0zM1 1h1v1H1zM2 0h23v1H2zM25 1h1v1h-1zM26 2h1v1h-1z"/>
    </symbol>
    <symbol id="ui-main" viewBox="0 0 176 221" bx:pinned="true">
      <use width="28" height="31" transform="matrix(1, 0, 0, 1, 0, 0)" xlink:href="#ui-tab-back"/>
      <use width="28" height="31" transform="matrix(1, 0, 0, 1, 28, 0)" xlink:href="#ui-tab-back"/>
      <use width="28" height="31" transform="matrix(1, 0, 0, 1, 56, 0)" xlink:href="#ui-tab-back"/>
      <use width="28" height="31" transform="matrix(1, 0, 0, 1, 84, 0)" xlink:href="#ui-tab-back"/>
      <use width="28" height="31" transform="matrix(1, 0, 0, 1, 148, 0)" xlink:href="#ui-tab-back"/>
      <use width="176" height="193" transform="matrix(1, 0, 0, 1, 0, 28)" xlink:href="#ui-cut"/>
    </symbol>
    <view id="tab-2" viewBox="186 0 176 221"/>
    <view id="tab-3" viewBox="372 0 176 221"/>
    <view id="tab-4" viewBox="558 0 176 221"/>
  </defs>
  <use width="176" height="221" transform="matrix(1, 0, 0, 1, 0, 0)" xlink:href="#ui-main"/>
  <use width="176" height="221" transform="matrix(1, 0, 0, 1, 186, 0)" xlink:href="#ui-main"/>
  <use width="176" height="221" transform="matrix(1, 0, 0, 1, 372, 0)" xlink:href="#ui-main"/>
  <use width="176" height="221" transform="matrix(1, 0, 0, 1, 558, 0)" xlink:href="#ui-main"/>
  <use width="28" height="31" transform="matrix(1, 0, 0, 1, 0, 0)" xlink:href="#ui-tab-front"/>
  <use width="28" height="31" transform="matrix(1, 0, 0, 1, 214, 0)" xlink:href="#ui-tab-front"/>
  <use width="28" height="31" transform="matrix(1, 0, 0, 1, 428, 0)" xlink:href="#ui-tab-front"/>
  <use width="28" height="31" transform="matrix(1, 0, 0, 1, 642, 0)" xlink:href="#ui-tab-front"/>
</svg>