<svg width="176" height="222" viewBox="0 0 176 222" xmlns="http://www.w3.org/2000/svg" xmlns:xlink="http://www.w3.org/1999/xlink">
    <g id="UIMain">
        <g id="UIBack">
            <g id="Back-Tab-1">
                <g id="Background">
                    <path id="Rectangle" fill="#8b8b8b" fill-rule="evenodd" stroke="none" d="M 1 31 L 26 31 L 26 1 L 1 1 Z"/>
                    <path id="path1" fill="#8b8b8b" fill-rule="evenodd" stroke="none" d="M 26 30 L 27 30 L 27 3 L 26 3 Z"/>
                </g>
                <g id="Border">
                    <path id="path2" fill="#000000" fill-rule="evenodd" stroke="none" d="M 0 31 L 1 31 L 1 2 L 0 2 Z"/>
                    <path id="path3" fill="#000000" fill-rule="evenodd" stroke="none" d="M 27 29 L 28 29 L 28 3 L 27 3 Z"/>
                    <path id="path4" fill="#000000" fill-rule="evenodd" stroke="none" d="M 1 2 L 2 2 L 2 1 L 1 1 Z"/>
                    <path id="path5" fill="#000000" fill-rule="evenodd" stroke="none" d="M 2 1 L 25 1 L 25 0 L 2 0 Z"/>
                    <path id="path6" fill="#000000" fill-rule="evenodd" stroke="none" d="M 25 2 L 26 2 L 26 1 L 25 1 Z"/>
                    <path id="path7" fill="#000000" fill-rule="evenodd" stroke="none" d="M 26 3 L 27 3 L 27 2 L 26 2 Z"/>
                </g>
                <g id="Highlight">
                    <path id="path8" fill="#ffffff" fill-rule="evenodd" stroke="none" d="M 1 31 L 3 31 L 3 3 L 1 3 Z"/>
                    <path id="path9" fill="#ffffff" fill-rule="evenodd" stroke="none" d="M 2 3 L 25 3 L 25 1 L 2 1 Z"/>
                    <path id="path10" fill="#ffffff" fill-rule="evenodd" stroke="none" d="M 3 4 L 4 4 L 4 3 L 3 3 Z"/>
                    <path id="path11" fill="#ffffff" fill-rule="evenodd" stroke="none" d="M 1 3 L 2 3 L 2 2 L 1 2 Z"/>
                </g>
                <g id="Shadow">
                    <path id="path12" fill="#555555" fill-rule="evenodd" stroke="none" d="M 25 30 L 27 30 L 27 3 L 25 3 Z"/>
                    <path id="path13" fill="#555555" fill-rule="evenodd" stroke="none" d="M 25 31 L 26 31 L 26 30 L 25 30 Z"/>
                </g>
            </g>
            <g id="Back-Tab-2">
                <g id="g1">
                    <path id="path14" fill="#8b8b8b" fill-rule="evenodd" stroke="none" d="M 29 31 L 54 31 L 54 1 L 29 1 Z"/>
                    <path id="path15" fill="#8b8b8b" fill-rule="evenodd" stroke="none" d="M 54 30 L 55 30 L 55 3 L 54 3 Z"/>
                </g>
                <g id="g2">
                    <path id="path16" fill="#000000" fill-rule="evenodd" stroke="none" d="M 28 31 L 29 31 L 29 2 L 28 2 Z"/>
                    <path id="path17" fill="#000000" fill-rule="evenodd" stroke="none" d="M 55 29 L 56 29 L 56 3 L 55 3 Z"/>
                    <path id="path18" fill="#000000" fill-rule="evenodd" stroke="none" d="M 29 2 L 30 2 L 30 1 L 29 1 Z"/>
                    <path id="path19" fill="#000000" fill-rule="evenodd" stroke="none" d="M 30 1 L 53 1 L 53 0 L 30 0 Z"/>
                    <path id="path20" fill="#000000" fill-rule="evenodd" stroke="none" d="M 53 2 L 54 2 L 54 1 L 53 1 Z"/>
                    <path id="path21" fill="#000000" fill-rule="evenodd" stroke="none" d="M 54 3 L 55 3 L 55 2 L 54 2 Z"/>
                </g>
                <g id="g3">
                    <path id="path22" fill="#ffffff" fill-rule="evenodd" stroke="none" d="M 29 31 L 31 31 L 31 3 L 29 3 Z"/>
                    <path id="path23" fill="#ffffff" fill-rule="evenodd" stroke="none" d="M 30 3 L 53 3 L 53 1 L 30 1 Z"/>
                    <path id="path24" fill="#ffffff" fill-rule="evenodd" stroke="none" d="M 31 4 L 32 4 L 32 3 L 31 3 Z"/>
                    <path id="path25" fill="#ffffff" fill-rule="evenodd" stroke="none" d="M 29 3 L 30 3 L 30 2 L 29 2 Z"/>
                </g>
                <g id="g4">
                    <path id="path26" fill="#555555" fill-rule="evenodd" stroke="none" d="M 53 30 L 55 30 L 55 3 L 53 3 Z"/>
                    <path id="path27" fill="#555555" fill-rule="evenodd" stroke="none" d="M 53 31 L 54 31 L 54 30 L 53 30 Z"/>
                </g>
            </g>
            <g id="Back-Tab-3">
                <g id="g5">
                    <path id="path28" fill="#8b8b8b" fill-rule="evenodd" stroke="none" d="M 57 31 L 82 31 L 82 1 L 57 1 Z"/>
                    <path id="path29" fill="#8b8b8b" fill-rule="evenodd" stroke="none" d="M 82 30 L 83 30 L 83 3 L 82 3 Z"/>
                </g>
                <g id="g6">
                    <path id="path30" fill="#000000" fill-rule="evenodd" stroke="none" d="M 56 31 L 57 31 L 57 2 L 56 2 Z"/>
                    <path id="path31" fill="#000000" fill-rule="evenodd" stroke="none" d="M 83 29 L 84 29 L 84 3 L 83 3 Z"/>
                    <path id="path32" fill="#000000" fill-rule="evenodd" stroke="none" d="M 57 2 L 58 2 L 58 1 L 57 1 Z"/>
                    <path id="path33" fill="#000000" fill-rule="evenodd" stroke="none" d="M 58 1 L 81 1 L 81 0 L 58 0 Z"/>
                    <path id="path34" fill="#000000" fill-rule="evenodd" stroke="none" d="M 81 2 L 82 2 L 82 1 L 81 1 Z"/>
                    <path id="path35" fill="#000000" fill-rule="evenodd" stroke="none" d="M 82 3 L 83 3 L 83 2 L 82 2 Z"/>
                </g>
                <g id="g7">
                    <path id="path36" fill="#ffffff" fill-rule="evenodd" stroke="none" d="M 57 31 L 59 31 L 59 3 L 57 3 Z"/>
                    <path id="path37" fill="#ffffff" fill-rule="evenodd" stroke="none" d="M 58 3 L 81 3 L 81 1 L 58 1 Z"/>
                    <path id="path38" fill="#ffffff" fill-rule="evenodd" stroke="none" d="M 59 4 L 60 4 L 60 3 L 59 3 Z"/>
                    <path id="path39" fill="#ffffff" fill-rule="evenodd" stroke="none" d="M 57 3 L 58 3 L 58 2 L 57 2 Z"/>
                </g>
                <g id="g8">
                    <path id="path40" fill="#555555" fill-rule="evenodd" stroke="none" d="M 81 30 L 83 30 L 83 3 L 81 3 Z"/>
                    <path id="path41" fill="#555555" fill-rule="evenodd" stroke="none" d="M 81 31 L 82 31 L 82 30 L 81 30 Z"/>
                </g>
            </g>
            <g id="Back-Tab-4">
                <g id="g9">
                    <path id="path42" fill="#8b8b8b" fill-rule="evenodd" stroke="none" d="M 85 31 L 110 31 L 110 1 L 85 1 Z"/>
                    <path id="path43" fill="#8b8b8b" fill-rule="evenodd" stroke="none" d="M 110 30 L 111 30 L 111 3 L 110 3 Z"/>
                </g>
                <g id="g10">
                    <path id="path44" fill="#000000" fill-rule="evenodd" stroke="none" d="M 84 31 L 85 31 L 85 2 L 84 2 Z"/>
                    <path id="path45" fill="#000000" fill-rule="evenodd" stroke="none" d="M 111 29 L 112 29 L 112 3 L 111 3 Z"/>
                    <path id="path46" fill="#000000" fill-rule="evenodd" stroke="none" d="M 85 2 L 86 2 L 86 1 L 85 1 Z"/>
                    <path id="path47" fill="#000000" fill-rule="evenodd" stroke="none" d="M 86 1 L 109 1 L 109 0 L 86 0 Z"/>
                    <path id="path48" fill="#000000" fill-rule="evenodd" stroke="none" d="M 109 2 L 110 2 L 110 1 L 109 1 Z"/>
                    <path id="path49" fill="#000000" fill-rule="evenodd" stroke="none" d="M 110 3 L 111 3 L 111 2 L 110 2 Z"/>
                </g>
                <g id="g11">
                    <path id="path50" fill="#ffffff" fill-rule="evenodd" stroke="none" d="M 85 31 L 87 31 L 87 3 L 85 3 Z"/>
                    <path id="path51" fill="#ffffff" fill-rule="evenodd" stroke="none" d="M 86 3 L 109 3 L 109 1 L 86 1 Z"/>
                    <path id="path52" fill="#ffffff" fill-rule="evenodd" stroke="none" d="M 87 4 L 88 4 L 88 3 L 87 3 Z"/>
                    <path id="path53" fill="#ffffff" fill-rule="evenodd" stroke="none" d="M 85 3 L 86 3 L 86 2 L 85 2 Z"/>
                </g>
                <g id="g12">
                    <path id="path54" fill="#555555" fill-rule="evenodd" stroke="none" d="M 109 30 L 111 30 L 111 3 L 109 3 Z"/>
                    <path id="path55" fill="#555555" fill-rule="evenodd" stroke="none" d="M 109 31 L 110 31 L 110 30 L 109 30 Z"/>
                </g>
            </g>
            <g id="Back-Tab-5">
                <g id="g13">
                    <path id="path56" fill="#8b8b8b" fill-rule="evenodd" stroke="none" d="M 149 31 L 174 31 L 174 1 L 149 1 Z"/>
                    <path id="path57" fill="#8b8b8b" fill-rule="evenodd" stroke="none" d="M 174 30 L 175 30 L 175 3 L 174 3 Z"/>
                </g>
                <g id="g14">
                    <path id="path58" fill="#000000" fill-rule="evenodd" stroke="none" d="M 148 31 L 149 31 L 149 2 L 148 2 Z"/>
                    <path id="path59" fill="#000000" fill-rule="evenodd" stroke="none" d="M 175 29 L 176 29 L 176 3 L 175 3 Z"/>
                    <path id="path60" fill="#000000" fill-rule="evenodd" stroke="none" d="M 149 2 L 150 2 L 150 1 L 149 1 Z"/>
                    <path id="path61" fill="#000000" fill-rule="evenodd" stroke="none" d="M 150 1 L 173 1 L 173 0 L 150 0 Z"/>
                    <path id="path62" fill="#000000" fill-rule="evenodd" stroke="none" d="M 173 2 L 174 2 L 174 1 L 173 1 Z"/>
                    <path id="path63" fill="#000000" fill-rule="evenodd" stroke="none" d="M 174 3 L 175 3 L 175 2 L 174 2 Z"/>
                </g>
                <g id="g15">
                    <path id="path64" fill="#ffffff" fill-rule="evenodd" stroke="none" d="M 149 31 L 151 31 L 151 3 L 149 3 Z"/>
                    <path id="path65" fill="#ffffff" fill-rule="evenodd" stroke="none" d="M 150 3 L 173 3 L 173 1 L 150 1 Z"/>
                    <path id="path66" fill="#ffffff" fill-rule="evenodd" stroke="none" d="M 151 4 L 152 4 L 152 3 L 151 3 Z"/>
                    <path id="path67" fill="#ffffff" fill-rule="evenodd" stroke="none" d="M 149 3 L 150 3 L 150 2 L 149 2 Z"/>
                </g>
                <g id="g16">
                    <path id="path68" fill="#555555" fill-rule="evenodd" stroke="none" d="M 173 30 L 175 30 L 175 3 L 173 3 Z"/>
                    <path id="path69" fill="#555555" fill-rule="evenodd" stroke="none" d="M 173 31 L 174 31 L 174 30 L 173 30 Z"/>
                </g>
            </g>
            <g id="Element-Cut">
                <g id="g17">
                    <path id="path70" fill="#c6c6c6" fill-rule="evenodd" stroke="none" d="M 2 220 L 174 220 L 174 30 L 2 30 Z"/>
                    <path id="path71" fill="#c6c6c6" fill-rule="evenodd" stroke="none" d="M 175 217 L 173 217 L 173 31 L 175 31 Z"/>
                </g>
                <g id="g18">
                    <path id="path72" fill="#000000" fill-rule="evenodd" stroke="none" d="M 2 29 L 173 29 L 173 28 L 2 28 Z"/>
                    <path id="Path" fill="#000000" fill-rule="evenodd" stroke="none" d="M 0 219 L 1 219 L 1 29 L 0 29 Z"/>
                    <path id="path73" fill="#000000" fill-rule="evenodd" stroke="none" d="M 3 222 L 174 222 L 174 221 L 3 221 Z"/>
                    <path id="path74" fill="#000000" fill-rule="evenodd" stroke="none" d="M 175 220 L 176 220 L 176 29 L 175 29 Z"/>
                    <path id="path75" fill="#000000" fill-rule="evenodd" stroke="none" d="M 174 221 L 175 221 L 175 220 L 174 220 Z"/>
                    <path id="path76" fill="#000000" fill-rule="evenodd" stroke="none" d="M 173 30 L 174 30 L 174 29 L 173 29 Z"/>
                    <path id="path77" fill="#000000" fill-rule="evenodd" stroke="none" d="M 174 31 L 175 31 L 175 30 L 174 30 Z"/>
                    <path id="path78" fill="#000000" fill-rule="evenodd" stroke="none" d="M 1 30 L 2 30 L 2 29 L 1 29 Z"/>
                    <path id="path79" fill="#000000" fill-rule="evenodd" stroke="none" d="M 1 220 L 2 220 L 2 219 L 1 219 Z"/>
                    <path id="path80" fill="#000000" fill-rule="evenodd" stroke="none" d="M 2 221 L 3 221 L 3 220 L 2 220 Z"/>
                </g>
                <g id="g19">
                    <path id="path81" fill="#ffffff" fill-rule="evenodd" stroke="none" d="M 1 219 L 3 219 L 3 30 L 1 30 Z"/>
                    <path id="path82" fill="#ffffff" fill-rule="evenodd" stroke="none" d="M 2 31 L 173 31 L 173 29 L 2 29 Z"/>
                    <path id="path83" fill="#ffffff" fill-rule="evenodd" stroke="none" d="M 2 33 L 3 33 L 3 32 L 2 32 Z"/>
                </g>
                <g id="g20">
                    <path id="path84" fill="#555555" fill-rule="evenodd" stroke="none" d="M 173 220 L 175 220 L 175 31 L 173 31 Z"/>
                    <path id="path85" fill="#555555" fill-rule="evenodd" stroke="none" d="M 3 221 L 174 221 L 174 219 L 3 219 Z"/>
                    <path id="path86" fill="#555555" fill-rule="evenodd" stroke="none" d="M 172 219 L 173 219 L 173 218 L 172 218 Z"/>
                    <path id="path87" fill="#555555" fill-rule="evenodd" stroke="none" d="M 2 220 L 3 220 L 3 219 L 2 219 Z"/>
                </g>
            </g>
        </g>
        <g id="FrontTab">
            <g id="g21">
                <path id="path88" fill="#c6c6c6" fill-rule="evenodd" stroke="none" d="M 1 31 L 26 31 L 26 1 L 1 1 Z"/>
                <path id="path89" fill="#c6c6c6" fill-rule="evenodd" stroke="none" d="M 26 30 L 27 30 L 27 3 L 26 3 Z"/>
            </g>
            <g id="g22">
                <path id="path90" fill="#000000" fill-rule="evenodd" stroke="none" d="M 0 29 L 1 29 L 1 2 L 0 2 Z"/>
                <path id="path91" fill="#000000" fill-rule="evenodd" stroke="none" d="M 27 29 L 28 29 L 28 3 L 27 3 Z"/>
                <path id="path92" fill="#000000" fill-rule="evenodd" stroke="none" d="M 1 2 L 2 2 L 2 1 L 1 1 Z"/>
                <path id="path93" fill="#000000" fill-rule="evenodd" stroke="none" d="M 2 1 L 25 1 L 25 0 L 2 0 Z"/>
                <path id="path94" fill="#000000" fill-rule="evenodd" stroke="none" d="M 25 2 L 26 2 L 26 1 L 25 1 Z"/>
                <path id="path95" fill="#000000" fill-rule="evenodd" stroke="none" d="M 26 3 L 27 3 L 27 2 L 26 2 Z"/>
            </g>
            <g id="g23">
                <path id="path96" fill="#ffffff" fill-rule="evenodd" stroke="none" d="M 1 31 L 3 31 L 3 3 L 1 3 Z"/>
                <path id="path97" fill="#ffffff" fill-rule="evenodd" stroke="none" d="M 2 3 L 25 3 L 25 1 L 2 1 Z"/>
                <path id="path98" fill="#ffffff" fill-rule="evenodd" stroke="none" d="M 3 4 L 4 4 L 4 3 L 3 3 Z"/>
                <path id="path99" fill="#ffffff" fill-rule="evenodd" stroke="none" d="M 1 3 L 2 3 L 2 2 L 1 2 Z"/>
            </g>
            <g id="g24">
                <path id="path100" fill="#555555" fill-rule="evenodd" stroke="none" d="M 25 30 L 27 30 L 27 3 L 25 3 Z"/>
                <path id="path101" fill="#555555" fill-rule="evenodd" stroke="none" d="M 25 31 L 26 31 L 26 30 L 25 30 Z"/>
            </g>
        </g>
    </g>
</svg>
